8888888888                888      8888888888                       
888                       888      888                              
888                       888      888                              
8888888  .d88b.   .d88b.  888      8888888 888d888 .d88b.   .d88b.  
888     d8P  Y8b d8P  Y8b 888      888     888P"  d8P  Y8b d8P  Y8b 
888     88888888 88888888 888      888     888    88888888 88888888 
888     Y8b.     Y8b.     888      888     888    Y8b.     Y8b.     
888      "Y8888   "Y8888  888      888     888     "Y8888   "Y8888  

Genre:Horror | Thriller
Language:English
IMDb:http://www.imdb.com/title/tt1634121/
Source:720p.BluRay.x264.-ALLiANCE Thanks!
Subtitles:English
Encoder:Tony


Format : MPEG-4
Format profile : Base Media
Codec ID : isom
File size : 2.39 GiB
Duration : 1h 39mn
Overall bit rate mode : Variable
Overall bit rate : 3 421 Kbps

Video
ID : 1
Format : AVC
Format/Info : Advanced Video Codec
Format profile : High@L5.1
Format settings, CABAC : Yes
Format settings, ReFrames : 3 frames
Codec ID : avc1
Codec ID/Info : Advanced Video Coding
Duration : 1h 39mn
Bit rate : 3 000 Kbps
Maximum bit rate : 14.3 Mbps
Width : 1 280 pixels
Height : 544 pixels
Display aspect ratio : 2.35:1
Frame rate mode : Constant
Frame rate : 23.976 fps
Color space : YUV
Chroma subsampling : 4:2:0
Bit depth : 8 bits
Scan type : Progressive
Bits/(Pixel*Frame) : 0.180
Stream size : 2.08 GiB (87%)
Writing library : x264

Audio
ID : 2
Format : AAC
Format/Info : Advanced Audio Codec
Format profile : LC
Codec ID : 40
Duration : 1h 39mn
Bit rate mode : Variable
Bit rate : 435 Kbps
Maximum bit rate : 549 Kbps
Channel(s) : 6 channels
Channel positions : Front: L C R, Side: L R, LFE
Sampling rate : 48.0 KHz
Compression mode : Lossy
Stream size : 311 MiB (13%)


Plot:
Two children living in different countries are visited nightly by a faceless being who wants to take possession of them.


Screen Shots:
     
http://img515.imageshack.us/img515/7512/vlcsnap2012050607h56m49.png
 
http://img801.imageshack.us/img801/5027/vlcsnap2012050607h56m12.png
 
http://img18.imageshack.us/img18/4886/vlcsnap2012050607h56m26.png
 
http://img88.imageshack.us/img88/1178/vlcsnap2012050607h57m16.png
 
http://img444.imageshack.us/img444/3624/vlcsnap2012050607h57m48.png


8888888888                888      8888888888                       
888                       888      888                              
888                       888      888                              
8888888  .d88b.   .d88b.  888      8888888 888d888 .d88b.   .d88b.  
888     d8P  Y8b d8P  Y8b 888      888     888P"  d8P  Y8b d8P  Y8b 
888     88888888 88888888 888      888     888    88888888 88888888 
888     Y8b.     Y8b.     888      888     888    Y8b.     Y8b.     
888      "Y8888   "Y8888  888      888     888     "Y8888   "Y8888  